<svg xmlns="http://www.w3.org/2000/svg" width="16" height="16" fill="none" viewBox="0 0 16 16"><rect width="16" height="16" fill="#E5E5E5"/><path fill="#2563EB" d="M0 0H16V16H0V0Z"/><path fill="#FFF6F6" d="M12.0073 3.10547H12.394V12H12.0073V3.10547ZM3.49951 3.10547H3.88623V12H3.49951V3.10547ZM11.2339 3.10547H11.6206V12H11.2339V3.10547ZM10.4604 3.10547H10.8472V12H10.4604V3.10547ZM9.68701 3.10547H10.0737V12H9.68701V8.51416H6.20654V12H5.81982V3.10547H6.20654V6.58057H9.68701V3.10547ZM5.04639 3.10547H5.43311V12H5.04639V3.10547ZM4.27295 3.10547H4.65967V12H4.27295V3.10547ZM9.68701 8.12744V7.74072H6.20654V8.12744H9.68701ZM9.68701 7.354V6.96729H6.20654V7.354H9.68701Z"/></svg>